<svg id="Icon_Social_Facebook_Copy" data-name="Icon/Social/Facebook Copy" xmlns="http://www.w3.org/2000/svg" width="32" height="32" viewBox="0 0 32 32">
  <g id="Logo_Social_instagram_White" data-name="Logo/Social/instagram/White" transform="translate(6.4 6.4)">
    <g id="Color_white" data-name="Color/white">
      <path id="Mask" d="M5.642,19.142A7.107,7.107,0,0,1,3.311,18.7a4.711,4.711,0,0,1-1.7-1.107A4.72,4.72,0,0,1,.5,15.888a7.075,7.075,0,0,1-.446-2.33C.011,12.543,0,12.2,0,9.6S.011,6.657.058,5.642A7.087,7.087,0,0,1,.5,3.311a4.711,4.711,0,0,1,1.107-1.7A4.711,4.711,0,0,1,3.311.5,7.087,7.087,0,0,1,5.642.058C6.657.011,7,0,9.6,0s2.943.011,3.959.058A7.075,7.075,0,0,1,15.888.5a4.72,4.72,0,0,1,1.7,1.107,4.711,4.711,0,0,1,1.107,1.7,7.107,7.107,0,0,1,.446,2.331c.048,1.025.058,1.366.058,3.958s-.011,2.933-.058,3.959a7.1,7.1,0,0,1-.446,2.33A4.909,4.909,0,0,1,15.888,18.7a7.1,7.1,0,0,1-2.33.446c-1.025.048-1.366.058-3.959.058S6.667,19.189,5.642,19.142ZM5.721,1.786a5.313,5.313,0,0,0-1.783.33,2.966,2.966,0,0,0-1.1.719,2.966,2.966,0,0,0-.719,1.1,5.313,5.313,0,0,0-.33,1.783C1.74,6.744,1.729,7.05,1.729,9.6s.01,2.856.056,3.879a5.313,5.313,0,0,0,.33,1.783,3.18,3.18,0,0,0,1.822,1.822,5.289,5.289,0,0,0,1.783.331c1,.046,1.3.055,3.879.055s2.881-.009,3.879-.055a5.289,5.289,0,0,0,1.783-.331,3.176,3.176,0,0,0,1.822-1.822,5.289,5.289,0,0,0,.331-1.783c.046-1,.055-1.3.055-3.879s-.009-2.881-.055-3.879a5.289,5.289,0,0,0-.331-1.783,3.18,3.18,0,0,0-1.822-1.822,5.313,5.313,0,0,0-1.783-.33c-1.024-.046-1.33-.056-3.879-.056S6.744,1.74,5.721,1.786ZM4.67,9.6A4.93,4.93,0,1,1,9.6,14.53,4.936,4.936,0,0,1,4.67,9.6Zm1.73,0A3.2,3.2,0,1,0,9.6,6.4,3.2,3.2,0,0,0,6.4,9.6Zm7.173-5.124a1.152,1.152,0,1,1,1.152,1.152A1.152,1.152,0,0,1,13.573,4.476Z" fill="#484a54"/>
    </g>
  </g>
</svg>
