<svg id="Icon_Social_Facebook_Copy_3" data-name="Icon/Social/Facebook Copy 3" xmlns="http://www.w3.org/2000/svg" width="32" height="32" viewBox="0 0 32 32">
  <g id="Logo_Social_twitter" data-name="Logo/Social/twitter" transform="translate(6.4 8)">
    <g id="Color_black" data-name="Color/black">
      <path id="Mask" d="M0,13.818a11.158,11.158,0,0,0,6.038,1.768,11.134,11.134,0,0,0,11.2-11.7A7.969,7.969,0,0,0,19.2,1.844a7.866,7.866,0,0,1-2.262.619A3.94,3.94,0,0,0,18.669.287a7.9,7.9,0,0,1-2.5.956A3.942,3.942,0,0,0,9.456,4.831,11.184,11.184,0,0,1,1.337.72,3.937,3.937,0,0,0,2.556,5.973,3.921,3.921,0,0,1,.771,5.481a3.94,3.94,0,0,0,3.16,3.908,3.942,3.942,0,0,1-1.778.067,3.939,3.939,0,0,0,3.679,2.733A7.922,7.922,0,0,1,0,13.818" fill="#484a54"/>
    </g>
  </g>
</svg>
