<svg xmlns="http://www.w3.org/2000/svg" width="24.066" height="17.135" viewBox="0 0 24.066 17.135">
  <g id="Icon_Menu_Black" data-name="Icon/Menu/Black" transform="translate(-7.934)">
    <g id="Group">
      <rect id="Rectangle" width="24" height="2" rx="1" transform="translate(8)" fill="#484a54"/>
      <rect id="Rectangle_Copy" data-name="Rectangle Copy" width="24" height="2" rx="1" transform="translate(8 6)" fill="#484a54"/>
      <path id="MENU" d="M19.575,5.765a2.126,2.126,0,0,1-.594-1.58V0h1.188V4.122a1.491,1.491,0,0,0,.274.981,1.041,1.041,0,0,0,.841.324,1.053,1.053,0,0,0,.851-.324,1.491,1.491,0,0,0,.274-.981V0h1.2V4.185a2.311,2.311,0,0,1-.265,1.121,1.874,1.874,0,0,1-.792.77,2.664,2.664,0,0,1-1.265.279A2.324,2.324,0,0,1,19.575,5.765Zm-3.8.455L13.641,1.188q.081.666.122,1.206t.04,1.287V6.219h-1.08V0h1.5L16.4,5.04c-.036-.24-.072-.556-.108-.95s-.054-.785-.054-1.174V0h1.08V6.219Zm-8.122,0V0h3.609l-.126.882h-2.3V2.619h2V3.5h-2V5.328H11.3v.891Zm-2.6,0-.162-2.6Q4.806,2.223,4.806,1.4V1.08L3.672,5.544H2.547L1.341,1.071q.018.594.018.9,0,.819-.054,1.683L1.152,6.219H0L.5,0h1.53L3.132,4.356,4.176,0H5.724L6.21,6.219Z" transform="translate(7.934 10.781)" fill="#484a54"/>
    </g>
  </g>
</svg>
